<svg width="98" height="25" viewBox="0 0 98 25" xmlns="http://www.w3.org/2000/svg" xmlns:xlink="http://www.w3.org/1999/xlink"><title>tnw_logo</title><defs><path id="a" d="M44.426 23.972V.593H.45v23.379z"/></defs><g fill="none" fill-rule="evenodd" opacity=".3"><path fill="#004863" d="M0 1v8.858h6.076V25h8.848V9.858H21V1z"/><g transform="translate(53.307)"><mask id="b" fill="#fff"><use xlink:href="#a"/></mask><path d="M35.661.684V8.92c0 1.414-2.814 3.843-5.46 6.188-.297.263-.745.209-1.102.209h-4.43c.498-.601.902-1.132 1.174-1.548.952-1.457 1.012-3.355 1.012-4.513V.684H18.09V8.92c0 1.414-2.815 3.843-5.46 6.188-.297.263-.745.209-1.102.209H9.215V.593H.45V23.91h4.382v.062h9.645c1.496 0 5.101-3.168 7.927-6.127v6.127h9.644c2.304 0 9.604-7.507 11.366-10.202.953-1.457 1.013-3.355 1.013-4.513V.684h-8.766z" fill="#004863" mask="url(#b)"/></g><path d="M37.915.684H24.257V24h8.765V9.337h2.313c.357 0 .805-.055 1.102.21 2.646 2.345 5.46 4.772 5.46 6.186v8.177h8.765v-8.512c0-1.159-.06-3.056-1.012-4.513C47.889 8.19 40.22.684 37.915.684" fill="#004863"/></g></svg>