<svg width="194" height="28" viewBox="0 0 194 28" xmlns="http://www.w3.org/2000/svg" xmlns:xlink="http://www.w3.org/1999/xlink"><title>tc_logo</title><defs><path id="a" d="M11.446.21v16.941H.543V.211h10.903z"/></defs><g fill="none" fill-rule="evenodd" opacity=".3"><path fill="#004863" d="M36 9h18V0H36zM0 0v9.333h9V28h9V9.333h9V0zm27 9v19h27v-9.5H36V9zm50-2H64v3.863h4.348V23h4.304V10.863H77zm3.976 9.644c.136-1.208.655-1.859 1.583-1.859 1.199 0 1.606.628 1.81 1.86h-3.393zm1.696-4.949c-3.121 0-5.429 2.161-5.429 6.366 0 3.742 1.968 6.345 5.542 6.345 1.855 0 3.37-.512 4.841-1.395l-1.56-2.672c-1.177.628-2.036.86-3.077.86-1.109 0-1.877-.604-2.013-1.952h6.967c.022-.209.022-.465.022-.813 0-4.532-2.035-6.739-5.293-6.739zm13.006 9.318c-1.108 0-1.673-.999-1.673-2.927 0-1.929.52-2.998 1.561-2.998.882 0 1.266.511 1.832 1.58l2.805-2.184c-1.041-1.72-2.33-2.79-4.57-2.79-3.8 0-5.654 2.58-5.654 6.321 0 4.114 2.08 6.391 5.564 6.391 2.103 0 3.393-.813 4.773-2.905l-2.579-2.068c-.746 1.139-1.29 1.58-2.059 1.58m14.025-9.318c-1.403 0-2.24.488-2.986 1.07V7.21l-4.071 1.672V24.15h4.071v-6.972c0-1.534.52-1.952 1.38-1.952.837 0 1.357.418 1.357 1.998v6.926h4.094v-7.46c0-3.207-1.244-4.996-3.845-4.996m13.663 8.784c-1.9 0-2.67-1.975-2.67-4.461 0-2.58.792-4.462 2.624-4.462 1.448 0 1.991.953 2.557 2.463l3.98-1.602c-1.085-3.068-2.624-4.787-6.515-4.787-4.252 0-7.238 3.16-7.238 8.388 0 4.81 2.512 8.39 7.216 8.39 3.755 0 5.52-2.07 6.583-4.207l-3.71-2.022c-.86 1.534-1.448 2.3-2.827 2.3m13.074-7.644v-.884h-4.072v12.201h4.072v-6.647c0-1.486.61-1.975 1.605-1.975.792 0 1.38.441 1.902 1.023l.949-4.346c-.475-.302-1.063-.51-1.923-.51-1.04 0-1.832.44-2.533 1.138m13.21 6.088c0 1.534-.52 1.952-1.358 1.952-.837 0-1.356-.418-1.356-1.999V11.95h-4.095v7.46c0 3.207 1.244 4.996 3.846 4.996 1.38 0 2.24-.488 2.962-1.07v.815h4.095v-12.2h-4.095v6.971zm14.114-7.227c-1.401 0-2.239.488-2.985 1.07v-.815h-4.072v12.201h4.072v-6.972c0-1.534.52-1.952 1.38-1.952.837 0 1.357.418 1.357 1.998v6.926h4.094v-7.46c0-3.207-1.244-4.996-3.846-4.996m11.944 9.318c-1.108 0-1.673-.999-1.673-2.927 0-1.929.519-2.998 1.56-2.998.882 0 1.267.511 1.833 1.58l2.804-2.184c-1.04-1.72-2.33-2.79-4.57-2.79-3.8 0-5.654 2.58-5.654 6.321 0 4.114 2.081 6.391 5.565 6.391 2.103 0 3.393-.813 4.773-2.905l-2.58-2.068c-.745 1.139-1.289 1.58-2.058 1.58"/><g transform="translate(182.131 7)"><mask id="b" fill="#fff"><use xlink:href="#a"/></mask><path d="M7.6 4.695c-1.401 0-2.239.488-2.985 1.07V.21L.543 1.883V17.15h4.072v-6.972c0-1.534.52-1.952 1.38-1.952.837 0 1.357.418 1.357 1.998v6.926h4.094V9.69c0-3.207-1.243-4.996-3.845-4.996" fill="#004863" mask="url(#b)"/></g></g></svg>