<svg width="143" height="37" viewBox="0 0 143 37" xmlns="http://www.w3.org/2000/svg"><title>Fstoppers_logo</title><g fill="#004863" fill-rule="evenodd" opacity=".3"><path d="M18.478 34.35c-8.728 0-15.829-7.1-15.829-15.828 0-8.729 7.101-15.83 15.83-15.83 8.728 0 15.829 7.101 15.829 15.83 0 8.728-7.101 15.829-15.83 15.829m0-34.308C8.29.043 0 8.333 0 18.522 0 28.71 8.29 37 18.478 37c10.19 0 18.48-8.29 18.48-18.478 0-10.19-8.29-18.479-18.48-18.479m34.299 17.352l-4.473-.008.951-5.365 5.526.01c.377.001.738-.292.803-.65l.406-1.717c.065-.358-.19-.651-.568-.652l-6.32-.012-.01-.001h-1.955a.87.87 0 0 0-.825.686l-3.301 18.628a.565.565 0 0 0 .577.686h1.955a.869.869 0 0 0 .824-.686l1.402-7.908 4.368.009c.377 0 .738-.292.802-.65l.406-1.718c.065-.358-.19-.652-.568-.652"/><path d="M18.6 17.364l-4.244-.01.94-5.308 5.494.01c.374 0 .733-.294.797-.655l.403-1.731c.064-.36-.19-.656-.564-.657l-6.276-.012L15.14 9h-1.943a.867.867 0 0 0-.818.692L9 28.768A14.034 14.034 0 0 0 11.938 31l1.878-10.603 4.147.01c.375 0 .733-.295.798-.656l.403-1.73c.064-.362-.19-.657-.564-.657m9.854-3.35L23.43 14c-1.45 0-2.581.949-2.784 2.187-.269 1.638-.323 2.026-.45 2.808-.203 1.182-.333 1.961.508 2.42a72.468 72.468 0 0 0 3.74 1.912c.335.157.372.514.359.737l-.026.192-.12.875c-.087.627-.419.784-.666.784h-3.84c-.355 0-.697.297-.758.662l-.384 1.747c-.06.364.181.662.537.662L24.57 29c1.45 0 2.582-.949 2.785-2.187.205-1.252.285-1.773.368-2.3a113.425 113.425 0 0 1 .14-.865.08.08 0 0 0-.006-.04c.028-.209.059-.436.086-.663.098-.812-.293-1.3-1.018-1.637-.672-.312-1.938-.92-3.306-1.544-.368-.168-.431-.522-.426-.792l.103-.759v-.001c.014-.111.03-.224.047-.343.087-.627.42-.784.667-.784h3.839c.356 0 .697-.297.758-.661l.384-1.748c.06-.364-.18-.662-.537-.662m34 .999L57.43 15c-1.45 0-2.581.932-2.784 2.146-.192 1.146-.274 1.668-.352 2.152-.004.013-.008.025-.01.038-.204 1.16-.407 1.973.42 2.46.986.582 2.454 1.288 3.74 1.877.283.13.331.488.318.776-.03.229-.066.48-.105.755-.087.615-.419.769-.666.769h-3.84c-.355 0-.697.292-.758.65l-.384 1.714c-.06.357.181.65.537.65L58.57 29c1.45 0 2.582-.931 2.785-2.146.149-.895.232-1.409.298-1.821-.025.179.168-.938.301-1.854.116-.795-.304-1.157-1.03-1.487-.671-.306-1.937-.902-3.305-1.516-.435-.194-.374-.62-.346-.885l.07-.495c.087-.615.42-.769.667-.769h3.839a.803.803 0 0 0 .758-.649l.384-1.714c.06-.358-.18-.65-.537-.65m80-.001L137.43 15c-1.45 0-2.581.932-2.784 2.146-.192 1.146-.274 1.668-.352 2.152-.004.013-.008.025-.01.038-.204 1.16-.407 1.973.42 2.46.986.582 2.454 1.288 3.74 1.877.283.13.331.488.318.776-.03.229-.066.48-.105.755-.087.615-.419.769-.666.769h-3.84c-.355 0-.697.292-.758.65l-.384 1.714c-.06.357.181.65.537.65l5.024.013c1.45 0 2.582-.931 2.785-2.146.15-.895.232-1.409.298-1.821-.025.179.168-.938.301-1.854.116-.795-.304-1.157-1.03-1.487-.671-.306-1.937-.902-3.305-1.516-.435-.194-.374-.62-.346-.885l.07-.495c.087-.615.42-.769.667-.769h3.839a.803.803 0 0 0 .758-.649l.384-1.714c.06-.358-.18-.65-.537-.65m-70.004.006l-2.164-.004.568-3.331c.065-.377-.182-.685-.548-.685h-1.858c-.366 0-.718.308-.783.685l-.567 3.324-.94-.002a.807.807 0 0 0-.763.649l-.386 1.714c-.06.357.182.65.54.65l1.035.002-1.073 6.282s-.258 1.316-.322 1.825c-.19 1.506 1.241 2.858 3.022 2.858l2.293.013a.806.806 0 0 0 .762-.649l.386-1.713c.061-.358-.181-.65-.54-.65l-.948-.006c-1.244 0-1.638-.265-1.582-.986l1.19-6.967 2.07.004a.806.806 0 0 0 .763-.649l.385-1.714c.062-.357-.181-.65-.54-.65m61.543.558c.06-.356-.253-.657-.819-.56l-3.108.94.013-.084c.063-.375-.178-.683-.537-.683h-1.816c-.358 0-.703.308-.766.683l-1.95 12.444c-.063.375.179.682.537.682h1.816c.359 0 .703-.307.766-.682l1.555-9.92 3.185.012c.35 0 .686-.29.746-.646l.378-2.186zm-26.473 3.108c-.006.032-.008.063-.01.094l-.955 5.818c-.02.058-.037.12-.05.185-.07.378.03 1.608-1.97 1.582a134.21 134.21 0 0 0-1.848-.005l1.427-8.455h2.435c1.085 0 1.036.402.97.78m1.335-3.652c-.95.156-3.439.514-4.37.647.036-.36-.212-.647-.578-.647h-1.944c-.383 0-.751.315-.819.699L98.011 34.3c-.068.384.19.699.574.699h1.943c.383 0 .751-.315.819-.699l.967-5.73c.685.104 2.916.443 3.913.57 1.215.155 2.795-.23 3.13-1.837.154-.732.27-1.127.412-1.963l1.202-7.324a.677.677 0 0 0 .005-.18c.2-2.274-.868-3.01-2.122-2.804M81.618 18.92l-1.165 6.233a1.191 1.191 0 0 1-1.159.987h-1.98c-.49 0-.859-.461-.765-.958l1.163-6.223a1.2 1.2 0 0 1 1.167-.994h1.977c.488 0 .856.46.762.956M82.934 15h-5.755c-1.218 0-2.262.898-2.482 2.136l-1.662 9.355c-.233 1.305.737 2.509 2.022 2.509h5.753c1.225 0 2.276-.904 2.498-2.15l1.657-9.33c.234-1.31-.74-2.52-2.031-2.52m37.456 3.92l-.311 1.307a1.53 1.53 0 0 1-1.23 1.19l-2.466.465.587-2.923a1.26 1.26 0 0 1 1.246-.994h1.361c.522 0 .913.46.814.956M121.795 15H116.4c-1.299 0-2.413.898-2.648 2.136l-1.715 9.355c-.248 1.305.787 2.509 2.158 2.509h4.43v-.008l1.432.008c.382 0 .75-.294.815-.653l.412-1.724c.066-.36-.194-.654-.577-.654l-2.033-.011v-.003h-2.02c-.523 0-.916-.461-.817-.958l.114-.958 5.063-.564c1.13-.126 2.043-.952 2.25-2.035l.699-3.92c.25-1.31-.79-2.52-2.168-2.52M94.52 18.686c-.006.032-.008.063-.01.094l-.955 5.818c-.02.058-.037.12-.05.185-.07.378.03 1.608-1.97 1.582a134.21 134.21 0 0 0-1.848-.005l1.427-8.455h2.435c1.085 0 1.036.402.97.78m1.335-3.652c-.95.156-3.439.514-4.37.647.036-.36-.212-.647-.578-.647h-1.944c-.383 0-.751.315-.819.699L85.011 34.3c-.068.384.19.699.574.699h1.943c.383 0 .751-.315.819-.699l.967-5.73c.685.104 2.916.443 3.913.57 1.215.155 2.795-.23 3.13-1.837.154-.732.27-1.127.412-1.963l1.202-7.324a.677.677 0 0 0 .005-.18c.2-2.274-.868-3.01-2.122-2.804"/></g></svg>