<svg width="1486" height="467" viewBox="0 0 1486 467" xmlns="http://www.w3.org/2000/svg"><title>binded_logo_full_color_large</title><g fill="none" fill-rule="evenodd"><path fill="#58B67F" d="M152.689 239.601V21.947L190.694.004v217.673l-38.005 21.924m-76.011 42.304V65.831l38.006-21.942V259.98l-38.006 21.925M.514 325.862V108.864L38.519 87.68v216.258L.514 325.862"/><path fill="#154355" d="M246.281 268.962L58.084 378.305l-38.065-21.839 188.212-109.351 38.05 21.847m74.763 44.472L134.215 421.982 96.15 400.143l186.844-108.557 38.05 21.848m76.271 43.773L209.686 466.219 172.276 444l186.989-108.641 38.05 21.848"/><path fill="#46B5C8" d="M228.071 174.922L416.565 283.75v43.885l-188.51-108.837.016-43.876m1.369-86.979L416.565 195.98v43.885L229.424 131.819l.016-43.876m.014-87.939L417.38 108.503l-.656 43.506L229.438 43.88l.016-43.876"/><path d="M582.474 238.461v61.904h40.241c7.221 0 13.047-1.082 17.487-3.25 4.432-2.166 7.891-4.845 10.367-8.047 2.476-3.198 4.127-6.548 4.953-10.06.822-3.506 1.238-6.702 1.238-9.595 0-2.679-.465-5.827-1.391-9.441-.929-3.607-2.684-7.013-5.261-10.214-2.584-3.196-6.039-5.881-10.371-8.047-4.332-2.168-9.905-3.25-16.714-3.25h-40.549zm38.381-31.881c7.222 0 13.048-1.03 17.488-3.096 4.436-2.06 7.894-4.59 10.371-7.583 2.476-2.99 4.123-6.192 4.952-9.596.822-3.404 1.239-6.446 1.239-9.13 0-2.679-.417-5.726-1.239-9.133-.829-3.404-2.476-6.654-4.952-9.749-2.477-3.094-5.935-5.672-10.371-7.738-4.44-2.06-10.266-3.096-17.488-3.096h-38.381v59.121h38.381zm-73.973-91h73.973c14.859 0 26.825 2.166 35.905 6.5 9.077 4.332 16.145 9.647 21.202 15.94 5.054 6.296 8.408 13 10.062 20.119 1.647 7.118 2.473 13.464 2.473 19.036 0 7.429-1.082 13.827-3.25 19.19-2.164 5.368-4.949 9.856-8.355 13.465-3.406 3.612-7.121 6.451-11.144 8.511-4.023 2.066-7.891 3.512-11.605 4.334 3.094.827 6.756 2.22 10.988 4.177 4.227 1.964 8.202 4.751 11.917 8.359 3.711 3.613 6.857 8.201 9.437 13.773 2.581 5.572 3.871 12.382 3.871 20.429 0 5.572-.825 12.023-2.476 19.345-1.655 7.327-5.005 14.191-10.059 20.583-5.06 6.399-12.125 11.817-21.202 16.251-9.084 4.44-21.049 6.654-35.904 6.654h-75.833V115.58zm191.902 216.666h33.737V188.008h-33.737v144.238zm-8.047-196.858c0-7.013 2.421-12.946 7.273-17.796 4.845-4.847 10.68-7.275 17.488-7.275 7.013 0 12.947 2.428 17.796 7.275 4.849 4.85 7.273 10.783 7.273 17.796 0 6.81-2.424 12.642-7.273 17.489-4.849 4.851-10.783 7.273-17.796 7.273-6.808 0-12.643-2.422-17.488-7.273-4.852-4.847-7.273-10.679-7.273-17.489zm86.17 52.62h33.737v20.119c4.536-7.839 10.831-13.773 18.882-17.797 8.046-4.025 17.431-6.036 28.166-6.036 10.523 0 19.343 1.755 26.464 5.261 7.117 3.512 12.739 8.257 16.867 14.24 3.506 5.367 5.93 11.35 7.273 17.952 1.342 6.606 2.015 14.857 2.015 24.761v85.738H916.57v-74.594c0-6.191-.516-11.966-1.546-17.335-1.034-5.362-2.737-9.953-5.106-13.773-2.376-3.815-5.574-6.859-9.597-9.131-4.023-2.268-9.028-3.404-15.011-3.404-11.761 0-20.481 4.178-26.155 12.535-5.678 8.357-8.511 18.725-8.511 31.108v74.594h-33.737V188.008m241.113 117.929c6.39 0 12.22-1.239 17.49-3.715 5.26-2.475 9.74-5.775 13.46-9.904 3.71-4.125 6.6-8.976 8.67-14.548 2.06-5.572 3.09-11.453 3.09-17.642 0-6.191-1.03-12.072-3.09-17.644-2.07-5.572-4.96-10.417-8.67-14.548-3.72-4.125-8.2-7.427-13.46-9.904-5.27-2.476-11.1-3.714-17.49-3.714-6.4 0-12.18 1.238-17.33 3.714-5.16 2.477-9.6 5.779-13.32 9.904-3.71 4.131-6.55 8.976-8.51 14.548-1.96 5.572-2.94 11.453-2.94 17.644 0 6.189.98 12.07 2.94 17.642 1.96 5.572 4.8 10.423 8.51 14.548 3.72 4.129 8.16 7.429 13.32 9.904 5.15 2.476 10.93 3.715 17.33 3.715zm42.71 6.81c-4.54 7.225-10.99 12.899-19.34 17.023-8.36 4.125-16.77 6.191-25.23 6.191-10.94 0-20.94-2.012-30.02-6.035-9.08-4.025-16.87-9.544-23.37-16.56-6.5-7.013-11.561-15.061-15.167-24.143-3.615-9.079-5.418-18.775-5.418-29.095 0-10.108 1.803-19.758 5.418-28.942 3.606-9.179 8.667-17.279 15.167-24.298 6.5-7.012 14.29-12.534 23.37-16.558 9.08-4.025 19.08-6.036 30.02-6.036 8.46 0 16.87 2.065 25.23 6.191 8.35 4.129 14.8 9.803 19.34 17.022V115.58h33.74v216.666h-33.74v-19.499zM1239.7 212.46c-9.9 0-18.31 2.785-25.22 8.357-6.92 5.572-10.37 13.725-10.37 24.452h70.57c0-10.106-3.25-18.106-9.75-23.987-6.5-5.882-14.91-8.822-25.23-8.822zm-35.9 57.882c0 5.16.72 10.01 2.17 14.547 1.44 4.542 3.66 8.511 6.65 11.917 2.99 3.404 6.86 6.089 11.61 8.047 4.74 1.963 10.53 2.941 17.33 2.941 4.75 0 8.82-.513 12.23-1.547 3.4-1.03 6.29-2.37 8.67-4.025a21.85 21.85 0 0 0 5.88-6.035 46.163 46.163 0 0 0 3.87-7.275h34.04c-1.24 6.191-3.56 12.126-6.96 17.798-3.4 5.678-7.84 10.679-13.31 15.013-5.47 4.332-11.92 7.79-19.35 10.369-7.42 2.578-15.78 3.869-25.07 3.869-12.17 0-22.75-2.118-31.72-6.346-8.98-4.226-16.46-9.852-22.44-16.868-5.99-7.013-10.48-15.061-13.47-24.144-2.99-9.078-4.48-18.571-4.48-28.475 0-10.727 1.59-20.739 4.79-30.026 3.2-9.285 7.79-17.331 13.78-24.141 5.98-6.811 13.41-12.12 22.28-15.941 8.87-3.817 18.98-5.726 30.33-5.726 9.29 0 18.01 1.652 26.16 4.953 8.15 3.303 15.27 7.892 21.36 13.772 6.08 5.881 10.83 12.745 14.24 20.583 3.4 7.846 5.1 16.406 5.1 25.691 0 2.476-.05 5.417-.15 8.822-.11 3.406-.57 7.483-1.4 12.227H1203.8zm205.21 35.595c6.4 0 12.23-1.239 17.49-3.715 5.26-2.475 9.75-5.775 13.46-9.904 3.72-4.125 6.61-8.976 8.67-14.548 2.06-5.572 3.1-11.453 3.1-17.642 0-6.191-1.04-12.072-3.1-17.644-2.06-5.572-4.95-10.417-8.67-14.548-3.71-4.125-8.2-7.427-13.46-9.904-5.26-2.476-11.09-3.714-17.49-3.714-6.4 0-12.18 1.238-17.33 3.714-5.16 2.477-9.6 5.779-13.31 9.904-3.72 4.131-6.56 8.976-8.51 14.548-1.97 5.572-2.95 11.453-2.95 17.644 0 6.189.98 12.07 2.95 17.642 1.95 5.572 4.79 10.423 8.51 14.548 3.71 4.129 8.15 7.429 13.31 9.904 5.15 2.476 10.93 3.715 17.33 3.715zm42.72 6.81c-4.55 7.225-10.99 12.899-19.35 17.023-8.36 4.125-16.77 6.191-25.23 6.191-10.94 0-20.94-2.012-30.02-6.035-9.08-4.025-16.87-9.544-23.37-16.56-6.5-7.013-11.56-15.061-15.17-24.143-3.61-9.079-5.41-18.775-5.41-29.095 0-10.108 1.8-19.758 5.41-28.942 3.61-9.179 8.67-17.279 15.17-24.298 6.5-7.012 14.29-12.534 23.37-16.558 9.08-4.025 19.08-6.036 30.02-6.036 8.46 0 16.87 2.065 25.23 6.191 8.36 4.129 14.8 9.803 19.35 17.022V115.58h33.73v216.666h-33.73v-19.499z" fill="#154355"/></g></svg>