<svg width="786" height="309" viewBox="0 0 786 309" xmlns="http://www.w3.org/2000/svg" xmlns:xlink="http://www.w3.org/1999/xlink"><title>Group 17</title><defs><circle id="a" cx="150" cy="150" r="150"/><circle id="c" cx="100" cy="100" r="100"/><filter x="-3.8%" y="-2.8%" width="107.5%" height="107.5%" filterUnits="objectBoundingBox" id="b"><feMorphology radius=".5" operator="dilate" in="SourceAlpha" result="shadowSpreadOuter1"/><feOffset dy="2" in="shadowSpreadOuter1" result="shadowOffsetOuter1"/><feGaussianBlur stdDeviation="2" in="shadowOffsetOuter1" result="shadowBlurOuter1"/><feComposite in="shadowBlurOuter1" in2="SourceAlpha" operator="out" result="shadowBlurOuter1"/><feColorMatrix values="0 0 0 0 0 0 0 0 0 0 0 0 0 0 0 0 0 0 0.0322407156 0" in="shadowBlurOuter1"/></filter><radialGradient cx="10.597%" cy="93.383%" fx="10.597%" fy="93.383%" r="141.421%" id="d"><stop stop-color="#A041EB" offset="0%"/><stop stop-color="#C76D9F" offset="58.297%"/><stop stop-color="#FFAB33" offset="100%"/></radialGradient></defs><g fill="none" fill-rule="evenodd"><g fill-rule="nonzero"><path d="M252 308a1 1 0 1 1 0-2c1.66 0 3.316-.027 4.97-.08a1 1 0 0 1 .064 2c-1.675.053-3.353.08-5.034.08zm10.065-.324c1.677-.108 3.35-.243 5.017-.405a1 1 0 1 0-.193-1.99c-1.646.16-3.297.293-4.952.4a1 1 0 0 0 .128 1.995zm10.022-.974c1.664-.217 3.323-.46 4.976-.731a1 1 0 1 0-.323-1.974 151.8 151.8 0 0 1-4.912.722 1 1 0 0 0 .259 1.983zm9.926-1.625c1.648-.326 3.289-.678 4.922-1.057a1 1 0 1 0-.452-1.948c-1.612.374-3.231.721-4.857 1.043a1 1 0 0 0 .387 1.962zm9.819-2.278c1.62-.433 3.233-.892 4.837-1.377a1 1 0 1 0-.579-1.915c-1.583.48-3.174.932-4.774 1.36a1 1 0 1 0 .516 1.932zm9.623-2.912a152.84 152.84 0 0 0 4.735-1.692 1 1 0 1 0-.704-1.872 150.839 150.839 0 0 1-4.673 1.67 1 1 0 1 0 .642 1.894zm9.428-3.545a153.1 153.1 0 0 0 4.618-2.002 1 1 0 1 0-.826-1.822 151.101 151.101 0 0 1-4.558 1.976 1 1 0 1 0 .766 1.848zm9.175-4.159a153.414 153.414 0 0 0 4.475-2.3 1 1 0 1 0-.943-1.763 155.79 155.79 0 0 1-4.417 2.27 1 1 0 1 0 .885 1.793zm8.893-4.757a150.82 150.82 0 0 0 4.319-2.592 1 1 0 0 0-1.057-1.698 151.952 151.952 0 0 1-4.263 2.558 1 1 0 0 0 1.001 1.732zm8.57-5.335a154.373 154.373 0 0 0 4.136-2.866 1 1 0 0 0-1.166-1.625 152.375 152.375 0 0 1-4.082 2.828 1 1 0 0 0 1.112 1.663zm8.147-5.843a154.71 154.71 0 0 0 3.941-3.127 1 1 0 0 0-1.268-1.546 152.71 152.71 0 0 1-3.89 3.087 1 1 0 1 0 1.217 1.586zm7.773-6.375a154.917 154.917 0 0 0 3.729-3.376 1 1 0 1 0-1.367-1.46 152.913 152.913 0 0 1-3.68 3.331 1 1 0 0 0 1.318 1.505zm7.356-6.882a154.957 154.957 0 0 0 3.503-3.612 1 1 0 0 0-1.458-1.369 152.957 152.957 0 0 1-3.458 3.566 1 1 0 1 0 1.413 1.415zm6.895-7.344a154.831 154.831 0 0 0 3.259-3.83 1 1 0 0 0-1.544-1.272 152.833 152.833 0 0 1-3.217 3.781 1 1 0 0 0 1.502 1.32zm6.407-7.784a154.563 154.563 0 0 0 3.003-4.035 1 1 0 0 0-1.623-1.168 152.564 152.564 0 0 1-2.965 3.983 1 1 0 1 0 1.585 1.22zm5.887-8.186a154.178 154.178 0 0 0 2.735-4.226 1 1 0 1 0-1.696-1.059 152.18 152.18 0 0 1-2.7 4.17 1 1 0 1 0 1.66 1.115zm5.338-8.55a153.733 153.733 0 0 0 2.452-4.394 1 1 0 0 0-1.762-.946 151.735 151.735 0 0 1-2.42 4.337 1 1 0 1 0 1.73 1.003zm4.769-8.886a153.3 153.3 0 0 0 2.16-4.547 1 1 0 1 0-1.821-.828 151.296 151.296 0 0 1-2.131 4.487 1 1 0 1 0 1.792.888zm4.181-9.196a152.953 152.953 0 0 0 1.854-4.677 1 1 0 0 0-1.871-.707 150.95 150.95 0 0 1-1.83 4.617 1 1 0 1 0 1.847.767zm3.556-9.422a152.79 152.79 0 0 0 1.542-4.792 1 1 0 0 0-1.913-.581 150.79 150.79 0 0 1-1.522 4.729 1 1 0 1 0 1.893.644zm2.896-9.518c.435-1.62.845-3.247 1.227-4.882a1 1 0 1 0-1.947-.456c-.378 1.614-.782 3.22-1.212 4.818a1 1 0 1 0 1.932.52zm2.292-9.797c.328-1.644.63-3.294.904-4.95a1 1 0 1 0-1.973-.328 151.37 151.37 0 0 1-.892 4.886 1 1 0 1 0 1.961.392zm1.648-9.95c.22-1.662.412-3.328.578-5a1 1 0 0 0-1.99-.197 155.4 155.4 0 0 1-.57 4.934 1 1 0 0 0 1.982.262zm.992-10.017c.111-1.671.195-3.346.252-5.026a1 1 0 1 0-1.999-.067 154.154 154.154 0 0 1-.248 4.96 1 1 0 0 0 1.995.133zm.342-10.069v-.27c0-1.59-.024-3.175-.072-4.757a1 1 0 1 0-2 .06c.048 1.562.072 3.127.072 4.697v.267a1 1 0 0 0 2 .003zm-.306-10.062a155.052 155.052 0 0 0-.396-5.01 1 1 0 1 0-1.991.19c.157 1.644.287 3.293.39 4.946a1 1 0 1 0 1.997-.126zm-.957-10.026a153.829 153.829 0 0 0-.724-4.985 1 1 0 0 0-1.974.32c.265 1.634.503 3.274.714 4.92a1 1 0 1 0 1.984-.255zm-1.608-9.932a153.108 153.108 0 0 0-1.047-4.919 1 1 0 1 0-1.949.449c.37 1.61.715 3.229 1.033 4.854a1 1 0 1 0 1.963-.384zm-2.261-9.825c-.43-1.624-.888-3.24-1.371-4.847a1 1 0 1 0-1.916.576c.477 1.586.929 3.18 1.354 4.783a1 1 0 0 0 1.933-.512zm-2.896-9.63a152.836 152.836 0 0 0-1.686-4.745 1 1 0 1 0-1.874.7c.58 1.552 1.136 3.113 1.665 4.683a1 1 0 0 0 1.895-.638zm-3.53-9.436c-.639-1.55-1.303-3.09-1.992-4.619a1 1 0 1 0-1.824.823c.68 1.508 1.337 3.028 1.967 4.558a1 1 0 0 0 1.85-.762zm-4.143-9.183a153.49 153.49 0 0 0-2.291-4.477 1 1 0 0 0-1.765.94 151.49 151.49 0 0 1 2.261 4.419 1 1 0 0 0 1.795-.882zm-4.743-8.903a153.939 153.939 0 0 0-2.583-4.322 1 1 0 1 0-1.7 1.054 151.94 151.94 0 0 1 2.55 4.266 1 1 0 1 0 1.733-.998zm-5.313-8.567a154.363 154.363 0 0 0-2.858-4.141 1 1 0 0 0-1.627 1.163c.962 1.347 1.903 2.71 2.821 4.087a1 1 0 0 0 1.664-1.109zm-5.828-8.158a154.7 154.7 0 0 0-3.121-3.948 1 1 0 0 0-1.549 1.266 152.7 152.7 0 0 1 3.082 3.897 1 1 0 1 0 1.588-1.215zm-6.362-7.784a154.908 154.908 0 0 0-3.371-3.737 1 1 0 0 0-1.463 1.363 152.909 152.909 0 0 1 3.328 3.69 1 1 0 1 0 1.506-1.316zm-6.868-7.37a154.956 154.956 0 0 0-3.604-3.507 1 1 0 0 0-1.372 1.456 152.958 152.958 0 0 1 3.558 3.462 1 1 0 1 0 1.418-1.41zm-7.343-6.916c-1.259-1.11-2.535-2.2-3.83-3.27a1 1 0 0 0-1.273 1.543 152.84 152.84 0 0 1 3.78 3.227 1 1 0 1 0 1.323-1.5zm-7.761-6.41a154.57 154.57 0 0 0-4.032-3.013 1 1 0 1 0-1.17 1.622c1.342.97 2.668 1.96 3.979 2.973a1 1 0 1 0 1.223-1.583zm-8.176-5.902a154.19 154.19 0 0 0-4.22-2.743 1 1 0 0 0-1.062 1.695c1.403.88 2.792 1.782 4.165 2.707a1 1 0 1 0 1.117-1.66zm-8.552-5.36a153.745 153.745 0 0 0-4.392-2.461 1 1 0 0 0-.949 1.76c1.459.786 2.904 1.596 4.335 2.43a1 1 0 0 0 1.006-1.73zm-8.877-4.784a153.308 153.308 0 0 0-4.541-2.166 1 1 0 0 0-.831 1.819c1.505.688 3 1.4 4.482 2.138a1 1 0 1 0 .89-1.791zm-9.174-4.191a152.96 152.96 0 0 0-4.675-1.863 1 1 0 1 0-.71 1.87c1.549.588 3.087 1.2 4.615 1.838a1 1 0 1 0 .77-1.845zm-9.414-3.573a152.79 152.79 0 0 0-4.789-1.55 1 1 0 1 0-.585 1.912c1.584.484 3.16.995 4.726 1.53a1 1 0 0 0 .648-1.892zm-9.525-2.916a152.89 152.89 0 0 0-4.878-1.236 1 1 0 0 0-.459 1.947c1.612.38 3.217.787 4.814 1.22a1 1 0 1 0 .523-1.931zm-9.79-2.31c-1.643-.33-3.293-.634-4.95-.912a1 1 0 1 0-.33 1.973c1.635.274 3.263.574 4.885.9a1 1 0 0 0 .394-1.96zm-9.945-1.664a153.793 153.793 0 0 0-4.999-.587 1 1 0 1 0-.2 1.99c1.65.167 3.294.36 4.933.579a1 1 0 0 0 .266-1.982zM262.617.36c-1.671-.114-3.347-.2-5.026-.26a1 1 0 0 0-.071 1.998c1.657.06 3.311.145 4.96.258a1 1 0 1 0 .137-1.996zM252.537 0a157.292 157.292 0 0 0-5.03.064 1 1 0 0 0 .058 2A154.863 154.863 0 0 1 252.53 2a1 1 0 1 0 .007-2zm-10.05.29c-1.678.101-3.35.23-5.02.387a1 1 0 0 0 .187 1.991 153.73 153.73 0 0 1 4.954-.383 1 1 0 0 0-.122-1.996zm-10.032.939c-1.665.21-3.326.449-4.98.713a1 1 0 0 0 .316 1.975 152.12 152.12 0 0 1 4.915-.704 1 1 0 0 0-.251-1.984zm-9.938 1.59c-1.65.32-3.292.667-4.928 1.04a1 1 0 1 0 .445 1.95 153.2 153.2 0 0 1 4.864-1.026 1 1 0 0 0-.381-1.964zm-9.831 2.245c-1.624.427-3.239.881-4.845 1.361a1 1 0 0 0 .572 1.916c1.586-.473 3.18-.921 4.782-1.343a1 1 0 0 0-.51-1.934zm-9.624 2.875a152.832 152.832 0 0 0-4.744 1.676 1 1 0 1 0 .697 1.875 150.831 150.831 0 0 1 4.683-1.655 1 1 0 1 0-.636-1.896zm-9.443 3.513a153.083 153.083 0 0 0-4.62 1.983 1 1 0 1 0 .819 1.825c1.509-.678 3.029-1.33 4.56-1.958a1 1 0 0 0-.759-1.85zm-9.192 4.127c-1.506.736-3 1.497-4.48 2.282a1 1 0 1 0 .937 1.767 151.476 151.476 0 0 1 4.421-2.253 1 1 0 0 0-.878-1.796zm-8.912 4.727a153.926 153.926 0 0 0-4.326 2.575 1 1 0 0 0 1.05 1.702 154.34 154.34 0 0 1 4.27-2.542 1 1 0 0 0-.994-1.735zm-8.577 5.298c-1.398.928-2.78 1.879-4.147 2.852a1 1 0 0 0 1.16 1.629c1.348-.96 2.713-1.899 4.093-2.815a1 1 0 1 0-1.106-1.666zm-8.181 5.823a154.694 154.694 0 0 0-3.954 3.115 1 1 0 0 0 1.263 1.55 152.694 152.694 0 0 1 3.903-3.074 1 1 0 1 0-1.212-1.591zm-7.795 6.349a154.905 154.905 0 0 0-3.745 3.367 1 1 0 1 0 1.362 1.465 152.905 152.905 0 0 1 3.696-3.323 1 1 0 0 0-1.313-1.509zm-7.38 6.856a154.957 154.957 0 0 0-3.517 3.6 1 1 0 1 0 1.454 1.375 152.957 152.957 0 0 1 3.47-3.555 1 1 0 1 0-1.408-1.42zm-6.92 7.32a154.845 154.845 0 0 0-3.276 3.824 1 1 0 1 0 1.54 1.276 152.845 152.845 0 0 1 3.233-3.773 1 1 0 0 0-1.497-1.326zm-6.434 7.762a154.581 154.581 0 0 0-3.019 4.027 1 1 0 0 0 1.62 1.173 152.581 152.581 0 0 1 2.98-3.975 1 1 0 1 0-1.58-1.225zm-5.914 8.164a154.2 154.2 0 0 0-2.749 4.214 1 1 0 1 0 1.693 1.065 152.2 152.2 0 0 1 2.713-4.159 1 1 0 1 0-1.657-1.12zm-5.367 8.53a153.757 153.757 0 0 0-2.468 4.386 1 1 0 0 0 1.759.952c.788-1.456 1.6-2.9 2.435-4.329a1 1 0 1 0-1.726-1.009zm-4.8 8.868a153.319 153.319 0 0 0-2.175 4.54 1 1 0 1 0 1.818.834 151.32 151.32 0 0 1 2.147-4.48 1 1 0 0 0-1.79-.894zm-4.212 9.178a152.967 152.967 0 0 0-1.871 4.672 1 1 0 0 0 1.869.713c.59-1.547 1.205-3.084 1.846-4.61a1 1 0 0 0-1.844-.775zm-3.588 9.407a152.792 152.792 0 0 0-1.56 4.785 1 1 0 1 0 1.912.588c.487-1.583 1-3.157 1.539-4.722a1 1 0 1 0-1.891-.651zm-2.933 9.518a152.883 152.883 0 0 0-1.244 4.876 1 1 0 0 0 1.946.463c.383-1.612.792-3.217 1.228-4.813a1 1 0 0 0-1.93-.526zm-2.326 9.784a153.335 153.335 0 0 0-.921 4.948 1 1 0 0 0 1.972.333c.277-1.634.58-3.262.91-4.883a1 1 0 0 0-1.96-.398zm-1.682 9.939c-.225 1.66-.424 3.326-.595 4.997a1 1 0 0 0 1.99.204c.169-1.65.365-3.293.587-4.932a1 1 0 1 0-1.982-.27zm-1.028 10.021a155.688 155.688 0 0 0-.269 5.025 1 1 0 0 0 1.999.075c.062-1.657.15-3.311.265-4.96a1 1 0 1 0-1.995-.14zm-.376 10.06a157.261 157.261 0 0 0 .055 5.031 1 1 0 0 0 1.999-.054 154.989 154.989 0 0 1-.054-4.967 1 1 0 1 0-2-.01zm.271 10.07c.1 1.675.226 3.345.379 5.012a1 1 0 1 0 1.992-.183 153.134 153.134 0 0 1-.374-4.948 1 1 0 1 0-1.997.119zm.922 10.02c.208 1.67.443 3.332.705 4.99a1 1 0 1 0 1.976-.313 151.88 151.88 0 0 1-.697-4.924 1 1 0 0 0-1.984.248zm1.573 9.945c.317 1.648.66 3.29 1.03 4.924a1 1 0 0 0 1.95-.442 151.137 151.137 0 0 1-1.016-4.86 1 1 0 1 0-1.964.378zm2.228 9.837c.424 1.623.875 3.237 1.351 4.843a1 1 0 1 0 1.918-.57c-.47-1.584-.915-3.177-1.334-4.779a1 1 0 0 0-1.935.506zm2.863 9.645c.53 1.59 1.086 3.171 1.667 4.743a1 1 0 1 0 1.876-.694 150.827 150.827 0 0 1-1.645-4.682 1 1 0 1 0-1.898.633zm3.493 9.437a153.074 153.074 0 0 0 1.978 4.63 1 1 0 0 0 1.826-.815 151.075 151.075 0 0 1-1.953-4.57 1 1 0 0 0-1.851.755zm4.111 9.2a150.06 150.06 0 0 0 2.28 4.491 1 1 0 0 0 1.768-.934 151.466 151.466 0 0 1-2.25-4.432 1 1 0 0 0-1.798.875zm4.706 8.909a153.913 153.913 0 0 0 2.567 4.33 1 1 0 1 0 1.704-1.048 151.914 151.914 0 0 1-2.534-4.274 1 1 0 1 0-1.737.992zm5.291 8.6a158.438 158.438 0 0 0 2.844 4.15 1 1 0 1 0 1.632-1.156 152.344 152.344 0 0 1-2.808-4.098 1 1 0 1 0-1.668 1.103zm5.8 8.179a154.687 154.687 0 0 0 3.11 3.96 1 1 0 1 0 1.553-1.26 152.684 152.684 0 0 1-3.07-3.91 1 1 0 0 0-1.593 1.21zm6.336 7.806a154.9 154.9 0 0 0 3.357 3.747 1 1 0 0 0 1.467-1.359 152.901 152.901 0 0 1-3.313-3.698 1 1 0 1 0-1.51 1.31zm6.843 7.393a154.957 154.957 0 0 0 3.593 3.52 1 1 0 1 0 1.376-1.45c-1.2-1.14-2.383-2.298-3.546-3.476a1 1 0 1 0-1.423 1.406zm7.309 6.932a154.85 154.85 0 0 0 3.816 3.282 1 1 0 0 0 1.28-1.537 152.852 152.852 0 0 1-3.768-3.24 1 1 0 1 0-1.328 1.495zm7.749 6.447a154.59 154.59 0 0 0 4.023 3.027 1 1 0 0 0 1.176-1.617 152.59 152.59 0 0 1-3.97-2.988 1 1 0 0 0-1.23 1.578zm8.154 5.93c1.389.941 2.793 1.861 4.212 2.757a1 1 0 1 0 1.068-1.69 153.83 153.83 0 0 1-4.158-2.723 1 1 0 1 0-1.122 1.655zm8.52 5.38c1.447.85 2.908 1.676 4.383 2.478a1 1 0 0 0 .955-1.758 151.771 151.771 0 0 1-4.327-2.444 1 1 0 0 0-1.012 1.725zm8.87 4.822c1.5.752 3.01 1.48 4.534 2.182a1 1 0 1 0 .837-1.816 151.331 151.331 0 0 1-4.474-2.153 1 1 0 0 0-.897 1.787zm9.157 4.222c1.545.652 3.102 1.279 4.669 1.88a1 1 0 1 0 .716-1.868 150.977 150.977 0 0 1-4.608-1.854 1 1 0 0 0-.777 1.842zm9.398 3.605c1.585.549 3.179 1.071 4.782 1.568a1 1 0 0 0 .592-1.91 150.796 150.796 0 0 1-4.72-1.548 1 1 0 1 0-.654 1.89zm9.554 2.961c1.617.444 3.242.861 4.875 1.252a1 1 0 1 0 .466-1.945 150.876 150.876 0 0 1-4.812-1.236 1 1 0 1 0-.53 1.93zm9.749 2.335c1.642.336 3.29.647 4.945.93a1 1 0 1 0 .338-1.972 151.32 151.32 0 0 1-4.882-.917 1 1 0 1 0-.401 1.959zm9.933 1.699c1.66.228 3.325.43 4.996.604a1 1 0 1 0 .208-1.99 152.21 152.21 0 0 1-4.932-.595 1 1 0 1 0-.272 1.981zm10.016 1.045c1.67.12 3.346.213 5.024.278a1 1 0 1 0 .079-1.998 154.001 154.001 0 0 1-4.96-.275 1 1 0 1 0-.143 1.995zm10.07.394a1 1 0 0 1 .014-2c.356.003.712.004 1.068.004a1 1 0 1 1 0 2c-.36 0-.721-.001-1.081-.004z" fill="#BCECFF"/><path d="M538 308a1 1 0 1 1 0-2c1.66 0 3.316-.027 4.97-.08a1 1 0 0 1 .064 2c-1.675.053-3.353.08-5.034.08zm10.065-.324c1.677-.108 3.35-.243 5.017-.405a1 1 0 1 0-.193-1.99c-1.646.16-3.297.293-4.952.4a1 1 0 0 0 .128 1.995zm10.022-.974c1.664-.217 3.323-.46 4.976-.731a1 1 0 1 0-.323-1.974 151.8 151.8 0 0 1-4.912.722 1 1 0 0 0 .259 1.983zm9.926-1.625c1.648-.326 3.289-.678 4.922-1.057a1 1 0 1 0-.452-1.948c-1.612.374-3.231.721-4.857 1.043a1 1 0 0 0 .387 1.962zm9.819-2.278c1.62-.433 3.233-.892 4.837-1.377a1 1 0 1 0-.579-1.915c-1.583.48-3.174.932-4.774 1.36a1 1 0 1 0 .516 1.932zm9.623-2.912a152.84 152.84 0 0 0 4.735-1.692 1 1 0 1 0-.704-1.872 150.839 150.839 0 0 1-4.673 1.67 1 1 0 1 0 .642 1.894zm9.428-3.545a153.1 153.1 0 0 0 4.618-2.002 1 1 0 1 0-.826-1.822 151.101 151.101 0 0 1-4.558 1.976 1 1 0 1 0 .766 1.848zm9.175-4.159a153.414 153.414 0 0 0 4.475-2.3 1 1 0 1 0-.943-1.763 155.79 155.79 0 0 1-4.417 2.27 1 1 0 1 0 .885 1.793zm8.893-4.757a150.82 150.82 0 0 0 4.319-2.592 1 1 0 0 0-1.057-1.698 151.952 151.952 0 0 1-4.263 2.558 1 1 0 0 0 1.001 1.732zm8.57-5.335a154.373 154.373 0 0 0 4.136-2.866 1 1 0 0 0-1.166-1.625 152.375 152.375 0 0 1-4.082 2.828 1 1 0 0 0 1.112 1.663zm8.147-5.843a154.71 154.71 0 0 0 3.941-3.127 1 1 0 0 0-1.268-1.546 152.71 152.71 0 0 1-3.89 3.087 1 1 0 1 0 1.217 1.586zm7.773-6.375a154.917 154.917 0 0 0 3.729-3.376 1 1 0 1 0-1.367-1.46 152.913 152.913 0 0 1-3.68 3.331 1 1 0 0 0 1.318 1.505zm7.356-6.882a154.957 154.957 0 0 0 3.503-3.612 1 1 0 0 0-1.458-1.369 152.957 152.957 0 0 1-3.458 3.566 1 1 0 1 0 1.413 1.415zm6.895-7.344a154.831 154.831 0 0 0 3.259-3.83 1 1 0 0 0-1.544-1.272 152.833 152.833 0 0 1-3.217 3.781 1 1 0 0 0 1.502 1.32zm6.407-7.784a154.563 154.563 0 0 0 3.003-4.035 1 1 0 0 0-1.623-1.168 152.564 152.564 0 0 1-2.965 3.983 1 1 0 1 0 1.585 1.22zm5.887-8.186a154.178 154.178 0 0 0 2.735-4.226 1 1 0 1 0-1.696-1.059 152.18 152.18 0 0 1-2.7 4.17 1 1 0 1 0 1.66 1.115zm5.338-8.55a153.733 153.733 0 0 0 2.452-4.394 1 1 0 0 0-1.762-.946 151.735 151.735 0 0 1-2.42 4.337 1 1 0 1 0 1.73 1.003zm4.769-8.886a153.3 153.3 0 0 0 2.16-4.547 1 1 0 1 0-1.821-.828 151.296 151.296 0 0 1-2.131 4.487 1 1 0 1 0 1.792.888zm4.181-9.196a152.953 152.953 0 0 0 1.854-4.677 1 1 0 0 0-1.871-.707 150.95 150.95 0 0 1-1.83 4.617 1 1 0 1 0 1.847.767zm3.556-9.422a152.79 152.79 0 0 0 1.542-4.792 1 1 0 0 0-1.913-.581 150.79 150.79 0 0 1-1.522 4.729 1 1 0 1 0 1.893.644zm2.896-9.518c.435-1.62.845-3.247 1.227-4.882a1 1 0 1 0-1.947-.456c-.378 1.614-.782 3.22-1.212 4.818a1 1 0 1 0 1.932.52zm2.292-9.797c.328-1.644.63-3.294.904-4.95a1 1 0 1 0-1.973-.328 151.37 151.37 0 0 1-.892 4.886 1 1 0 1 0 1.961.392zm1.648-9.95c.22-1.662.412-3.328.578-5a1 1 0 0 0-1.99-.197 155.4 155.4 0 0 1-.57 4.934 1 1 0 0 0 1.982.262zm.992-10.017c.111-1.671.195-3.346.252-5.026a1 1 0 1 0-1.999-.067 154.154 154.154 0 0 1-.248 4.96 1 1 0 0 0 1.995.133zm.342-10.069v-.27c0-1.59-.024-3.175-.072-4.757a1 1 0 1 0-2 .06c.048 1.562.072 3.127.072 4.697v.267a1 1 0 0 0 2 .003zm-.306-10.062a155.052 155.052 0 0 0-.396-5.01 1 1 0 1 0-1.991.19c.157 1.644.287 3.293.39 4.946a1 1 0 1 0 1.997-.126zm-.957-10.026a153.829 153.829 0 0 0-.724-4.985 1 1 0 0 0-1.974.32c.265 1.634.503 3.274.714 4.92a1 1 0 1 0 1.984-.255zm-1.608-9.932a153.108 153.108 0 0 0-1.047-4.919 1 1 0 1 0-1.949.449c.37 1.61.715 3.229 1.033 4.854a1 1 0 1 0 1.963-.384zm-2.261-9.825c-.43-1.624-.888-3.24-1.371-4.847a1 1 0 1 0-1.916.576c.477 1.586.929 3.18 1.354 4.783a1 1 0 0 0 1.933-.512zm-2.896-9.63a152.836 152.836 0 0 0-1.686-4.745 1 1 0 1 0-1.874.7c.58 1.552 1.136 3.113 1.665 4.683a1 1 0 0 0 1.895-.638zm-3.53-9.436c-.639-1.55-1.303-3.09-1.992-4.619a1 1 0 1 0-1.824.823c.68 1.508 1.337 3.028 1.967 4.558a1 1 0 0 0 1.85-.762zm-4.143-9.183a153.49 153.49 0 0 0-2.291-4.477 1 1 0 0 0-1.765.94 151.49 151.49 0 0 1 2.261 4.419 1 1 0 0 0 1.795-.882zm-4.743-8.903a153.939 153.939 0 0 0-2.583-4.322 1 1 0 1 0-1.7 1.054 151.94 151.94 0 0 1 2.55 4.266 1 1 0 1 0 1.733-.998zm-5.313-8.567a154.363 154.363 0 0 0-2.858-4.141 1 1 0 0 0-1.627 1.163c.962 1.347 1.903 2.71 2.821 4.087a1 1 0 0 0 1.664-1.109zm-5.828-8.158a154.7 154.7 0 0 0-3.121-3.948 1 1 0 0 0-1.549 1.266 152.7 152.7 0 0 1 3.082 3.897 1 1 0 1 0 1.588-1.215zm-6.362-7.784a154.908 154.908 0 0 0-3.371-3.737 1 1 0 0 0-1.463 1.363 152.909 152.909 0 0 1 3.328 3.69 1 1 0 1 0 1.506-1.316zm-6.868-7.37a154.956 154.956 0 0 0-3.604-3.507 1 1 0 0 0-1.372 1.456 152.958 152.958 0 0 1 3.558 3.462 1 1 0 1 0 1.418-1.41zm-7.343-6.916c-1.259-1.11-2.535-2.2-3.83-3.27a1 1 0 0 0-1.273 1.543 152.84 152.84 0 0 1 3.78 3.227 1 1 0 1 0 1.323-1.5zm-7.761-6.41a154.57 154.57 0 0 0-4.032-3.013 1 1 0 1 0-1.17 1.622c1.342.97 2.668 1.96 3.979 2.973a1 1 0 1 0 1.223-1.583zm-8.176-5.902a154.19 154.19 0 0 0-4.22-2.743 1 1 0 0 0-1.062 1.695c1.403.88 2.792 1.782 4.165 2.707a1 1 0 1 0 1.117-1.66zm-8.552-5.36a153.745 153.745 0 0 0-4.392-2.461 1 1 0 0 0-.949 1.76c1.459.786 2.904 1.596 4.335 2.43a1 1 0 0 0 1.006-1.73zm-8.877-4.784a153.308 153.308 0 0 0-4.541-2.166 1 1 0 0 0-.831 1.819c1.505.688 3 1.4 4.482 2.138a1 1 0 1 0 .89-1.791zm-9.174-4.191a152.96 152.96 0 0 0-4.675-1.863 1 1 0 1 0-.71 1.87c1.549.588 3.087 1.2 4.615 1.838a1 1 0 1 0 .77-1.845zm-9.414-3.573a152.79 152.79 0 0 0-4.789-1.55 1 1 0 1 0-.585 1.912c1.584.484 3.16.995 4.726 1.53a1 1 0 0 0 .648-1.892zm-9.525-2.916a152.89 152.89 0 0 0-4.878-1.236 1 1 0 0 0-.459 1.947c1.612.38 3.217.787 4.814 1.22a1 1 0 1 0 .523-1.931zm-9.79-2.31c-1.643-.33-3.293-.634-4.95-.912a1 1 0 1 0-.33 1.973c1.635.274 3.263.574 4.885.9a1 1 0 0 0 .394-1.96zm-9.945-1.664a153.793 153.793 0 0 0-4.999-.587 1 1 0 1 0-.2 1.99c1.65.167 3.294.36 4.933.579a1 1 0 0 0 .266-1.982zM548.617.36c-1.671-.114-3.347-.2-5.026-.26a1 1 0 0 0-.071 1.998c1.657.06 3.311.145 4.96.258a1 1 0 1 0 .137-1.996zM538.537 0a157.292 157.292 0 0 0-5.03.064 1 1 0 0 0 .058 2A154.863 154.863 0 0 1 538.53 2a1 1 0 1 0 .007-2zm-10.05.29c-1.678.101-3.35.23-5.02.387a1 1 0 0 0 .187 1.991 153.73 153.73 0 0 1 4.954-.383 1 1 0 0 0-.122-1.996zm-10.032.939c-1.665.21-3.326.449-4.98.713a1 1 0 0 0 .316 1.975 152.12 152.12 0 0 1 4.915-.704 1 1 0 0 0-.251-1.984zm-9.938 1.59c-1.65.32-3.292.667-4.928 1.04a1 1 0 1 0 .445 1.95 153.2 153.2 0 0 1 4.864-1.026 1 1 0 0 0-.381-1.964zm-9.831 2.245c-1.624.427-3.239.881-4.845 1.361a1 1 0 0 0 .572 1.916c1.586-.473 3.18-.921 4.782-1.343a1 1 0 0 0-.51-1.934zm-9.624 2.875a152.832 152.832 0 0 0-4.744 1.676 1 1 0 1 0 .697 1.875 150.831 150.831 0 0 1 4.683-1.655 1 1 0 1 0-.636-1.896zm-9.443 3.513a153.084 153.084 0 0 0-4.62 1.983 1 1 0 0 0 .819 1.825c1.509-.678 3.029-1.33 4.56-1.958a1 1 0 1 0-.759-1.85zm-9.192 4.127c-1.506.736-3 1.497-4.48 2.282a1 1 0 0 0 .937 1.767 151.476 151.476 0 0 1 4.421-2.253 1 1 0 0 0-.878-1.796zm-8.912 4.727a153.926 153.926 0 0 0-4.326 2.575 1 1 0 0 0 1.05 1.702 154.34 154.34 0 0 1 4.27-2.542 1 1 0 1 0-.994-1.735zm-8.577 5.298c-1.398.928-2.78 1.879-4.147 2.852a1 1 0 1 0 1.16 1.629c1.348-.96 2.713-1.899 4.093-2.815a1 1 0 1 0-1.106-1.666zm-8.181 5.823a154.694 154.694 0 0 0-3.954 3.115 1 1 0 0 0 1.263 1.55 152.696 152.696 0 0 1 3.903-3.074 1 1 0 1 0-1.212-1.591zm-7.795 6.349a154.904 154.904 0 0 0-3.745 3.367 1 1 0 1 0 1.362 1.465 152.903 152.903 0 0 1 3.696-3.323 1 1 0 1 0-1.313-1.509zm-7.38 6.856a154.956 154.956 0 0 0-3.517 3.6 1 1 0 1 0 1.454 1.375 152.957 152.957 0 0 1 3.47-3.555 1 1 0 0 0-1.408-1.42zm-6.92 7.32a154.846 154.846 0 0 0-3.276 3.824 1 1 0 0 0 1.54 1.276 152.846 152.846 0 0 1 3.233-3.773 1 1 0 1 0-1.497-1.326zm-6.434 7.762a154.581 154.581 0 0 0-3.019 4.027 1 1 0 0 0 1.62 1.173 152.58 152.58 0 0 1 2.98-3.975 1 1 0 1 0-1.58-1.225zm-5.914 8.164a154.2 154.2 0 0 0-2.749 4.214 1 1 0 1 0 1.693 1.065 152.203 152.203 0 0 1 2.713-4.159 1 1 0 1 0-1.657-1.12zm-5.367 8.53a153.758 153.758 0 0 0-2.468 4.386 1 1 0 1 0 1.759.952c.788-1.456 1.6-2.9 2.435-4.329a1 1 0 1 0-1.726-1.009zm-4.8 8.868a153.32 153.32 0 0 0-2.175 4.54 1 1 0 0 0 1.818.834 151.32 151.32 0 0 1 2.147-4.48 1 1 0 1 0-1.79-.894zm-4.212 9.178a152.966 152.966 0 0 0-1.871 4.672 1 1 0 1 0 1.869.713c.59-1.547 1.205-3.084 1.846-4.61a1 1 0 0 0-1.844-.775zm-3.588 9.407a152.795 152.795 0 0 0-1.56 4.785 1 1 0 1 0 1.912.588c.487-1.583 1-3.157 1.539-4.722a1 1 0 1 0-1.891-.651zm-2.933 9.518a152.884 152.884 0 0 0-1.244 4.876 1 1 0 0 0 1.946.463c.383-1.612.792-3.217 1.228-4.813a1 1 0 0 0-1.93-.526zm-2.326 9.784a153.338 153.338 0 0 0-.921 4.948 1 1 0 0 0 1.972.333c.277-1.634.58-3.262.91-4.883a1 1 0 0 0-1.96-.398zm-1.682 9.939c-.225 1.66-.424 3.326-.595 4.997a1 1 0 0 0 1.99.204c.169-1.65.365-3.293.587-4.932a1 1 0 1 0-1.982-.27zm-1.028 10.021a155.688 155.688 0 0 0-.269 5.025 1 1 0 0 0 1.999.075c.062-1.657.15-3.311.265-4.96a1 1 0 1 0-1.995-.14zm-.376 10.06a157.214 157.214 0 0 0 .055 5.031 1 1 0 0 0 1.999-.054 154.989 154.989 0 0 1-.054-4.967 1 1 0 0 0-2-.01zm.271 10.07c.1 1.675.226 3.345.379 5.012a1 1 0 1 0 1.992-.183 153.133 153.133 0 0 1-.374-4.948 1 1 0 0 0-1.997.119zm.922 10.02c.208 1.67.443 3.332.705 4.99a1 1 0 1 0 1.976-.313 151.881 151.881 0 0 1-.697-4.924 1 1 0 0 0-1.984.248zm1.573 9.945c.317 1.648.66 3.29 1.03 4.924a1 1 0 1 0 1.95-.442 151.139 151.139 0 0 1-1.016-4.86 1 1 0 1 0-1.964.378zm2.228 9.837c.424 1.623.875 3.237 1.351 4.843a1 1 0 1 0 1.918-.57c-.47-1.584-.915-3.177-1.334-4.779a1 1 0 0 0-1.935.506zm2.863 9.645c.53 1.59 1.086 3.171 1.667 4.743a1 1 0 0 0 1.876-.694 150.829 150.829 0 0 1-1.645-4.682 1 1 0 1 0-1.898.633zm3.493 9.437a153.073 153.073 0 0 0 1.978 4.63 1 1 0 0 0 1.826-.815 151.076 151.076 0 0 1-1.953-4.57 1 1 0 1 0-1.851.755zm4.111 9.2a150.06 150.06 0 0 0 2.28 4.491 1 1 0 0 0 1.768-.934 151.465 151.465 0 0 1-2.25-4.432 1 1 0 0 0-1.798.875zm4.706 8.909a153.914 153.914 0 0 0 2.567 4.33 1 1 0 1 0 1.704-1.048 151.915 151.915 0 0 1-2.534-4.274 1 1 0 0 0-1.737.992zm5.291 8.6a158.438 158.438 0 0 0 2.844 4.15 1 1 0 1 0 1.632-1.156 152.344 152.344 0 0 1-2.808-4.098 1 1 0 0 0-1.668 1.103zm5.8 8.179a154.689 154.689 0 0 0 3.11 3.96 1 1 0 1 0 1.553-1.26 152.686 152.686 0 0 1-3.07-3.91 1 1 0 1 0-1.593 1.21zm6.336 7.806a154.901 154.901 0 0 0 3.357 3.747 1 1 0 0 0 1.467-1.359 152.9 152.9 0 0 1-3.313-3.698 1 1 0 1 0-1.51 1.31zm6.843 7.393a154.959 154.959 0 0 0 3.593 3.52 1 1 0 0 0 1.376-1.45c-1.2-1.14-2.383-2.298-3.546-3.476a1 1 0 1 0-1.423 1.406zm7.309 6.932a154.85 154.85 0 0 0 3.816 3.282 1 1 0 0 0 1.28-1.537 152.854 152.854 0 0 1-3.768-3.24 1 1 0 1 0-1.328 1.495zm7.749 6.447a153.63 153.63 0 0 0 4.023 3.027 1 1 0 0 0 1.176-1.617c-1.34-.975-2.663-1.97-3.97-2.988a1 1 0 0 0-1.23 1.578zm8.154 5.93a154.21 154.21 0 0 0 4.212 2.757 1 1 0 1 0 1.068-1.69 153.83 153.83 0 0 1-4.158-2.723 1 1 0 1 0-1.122 1.655zm8.52 5.38c1.447.85 2.908 1.676 4.383 2.478a1 1 0 0 0 .955-1.758 151.772 151.772 0 0 1-4.327-2.444 1 1 0 0 0-1.012 1.725zm8.87 4.822c1.5.752 3.01 1.48 4.534 2.182a1 1 0 1 0 .837-1.816 151.33 151.33 0 0 1-4.474-2.153 1 1 0 1 0-.897 1.787zm9.157 4.222c1.545.652 3.102 1.279 4.669 1.88a1 1 0 1 0 .716-1.868 150.976 150.976 0 0 1-4.608-1.854 1 1 0 0 0-.777 1.842zm9.398 3.605c1.585.549 3.179 1.071 4.782 1.568a1 1 0 0 0 .592-1.91 150.796 150.796 0 0 1-4.72-1.548 1 1 0 1 0-.654 1.89zm9.554 2.961c1.617.444 3.242.861 4.875 1.252a1 1 0 1 0 .466-1.945 150.876 150.876 0 0 1-4.812-1.236 1 1 0 1 0-.53 1.93zm9.749 2.335c1.642.336 3.29.647 4.945.93a1 1 0 1 0 .338-1.972 151.32 151.32 0 0 1-4.882-.917 1 1 0 1 0-.401 1.959zm9.933 1.699c1.66.228 3.325.43 4.996.604a1 1 0 1 0 .208-1.99 152.21 152.21 0 0 1-4.932-.595 1 1 0 1 0-.272 1.981zm10.016 1.045c1.67.12 3.346.213 5.024.278a1 1 0 1 0 .079-1.998 154.001 154.001 0 0 1-4.96-.275 1 1 0 1 0-.143 1.995zm10.07.394a1 1 0 0 1 .014-2c.356.003.712.004 1.068.004a1 1 0 1 1 0 2c-.36 0-.721-.001-1.081-.004z" fill="#BCECFF"/><path d="M618.507 16.49l-2.047 7.64a.52.52 0 0 1-.417.369.615.615 0 0 1-.604-.185l-5.53-5.564a.486.486 0 0 1-.151-.513.522.522 0 0 1 .39-.376l7.567-2.042a.758.758 0 0 1 .343-.018c.108.023.204.08.276.159a.52.52 0 0 1 .173.53zM516.936 300.58l-.276 7.904a.52.52 0 0 0 .29.474.615.615 0 0 0 .633 0l6.914-3.704a.486.486 0 0 0 .296-.447.522.522 0 0 0-.264-.473l-6.64-4.165a.758.758 0 0 0-.323-.117.517.517 0 0 0-.31.07.52.52 0 0 0-.32.458zm-238.869-1.57l3.467 7.109a.52.52 0 0 1-.073.551.615.615 0 0 1-.578.257l-7.823-.572a.486.486 0 0 1-.451-.287.522.522 0 0 1 .048-.54l4.371-6.505a.758.758 0 0 1 .248-.24.517.517 0 0 1 .312-.06.52.52 0 0 1 .479.287zM183.82 22.055l-5.69-5.494a.52.52 0 0 1-.12-.543.615.615 0 0 1 .456-.44l7.546-2.138a.486.486 0 0 1 .523.116.522.522 0 0 1 .14.524l-1.884 7.607a.758.758 0 0 1-.15.31.517.517 0 0 1-.273.164.52.52 0 0 1-.548-.106z" fill="#5BB9D7"/></g><g transform="translate(246 4)"><use fill="#FFF" xlink:href="#a"/><circle stroke="#49B9D6" cx="150" cy="150" r="149.5"/></g><path d="M389.861 74.141v74.936l-13.163 7.547V81.697l13.163-7.556zm-39.485 97.047V96.803l13.163-7.551v74.39l-13.163 7.546zM324 111.616l13.163-7.294v74.45L324 186.322v-74.706z" fill="#63BB7E"/><path d="M409.112 166.732l-65.176 37.64-13.181-7.518 65.18-37.64 13.177 7.518zm25.891 15.31l-64.7 37.37-13.186-7.52 64.71-37.37 13.176 7.52zm-51.52 44.949l64.76-37.402 13.171 7.519-64.972 37.53-12.96-7.647z" fill="#004863"/><path d="M402.802 149.464l.005-15.107 65.277 37.466v15.106l-65.282-37.465zm.47-29.943l.01-15.107 64.801 37.195v15.106l-64.81-37.194zm.013-45.38l65.079 37.351-.227 14.978-64.857-37.222.005-15.107z" fill="#49BAD7"/><g transform="translate(5 53)"><use fill="#000" filter="url(#b)" xlink:href="#c"/><use stroke="#B4C8CF" fill="#FFF" xlink:href="#c"/></g><path d="M43.983 0C55.925 0 57.427.052 62.14.244c4.697.21 7.892.961 10.686 2.044 2.88 1.135 5.343 2.637 7.787 5.082 2.445 2.445 3.964 4.89 5.081 7.789 1.083 2.811 1.834 6.007 2.043 10.687.21 4.698.262 6.183.262 18.145 0 11.963-.052 13.447-.262 18.145-.21 4.698-.96 7.894-2.043 10.688-1.135 2.881-2.636 5.344-5.08 7.789-2.445 2.445-4.89 3.964-7.788 5.082-2.811 1.083-6.006 1.833-10.686 2.043-4.697.21-6.18.262-18.141.262-11.96 0-13.444-.052-18.141-.262-4.697-.21-7.892-.96-10.686-2.043-2.88-1.135-5.343-2.637-7.787-5.082-2.445-2.445-3.964-4.89-5.081-7.789C1.222 70.012.47 66.816.262 62.136.052 57.438 0 55.936 0 43.991s.052-13.447.262-18.127c.21-4.698.96-7.894 2.043-10.688 1.135-2.881 2.636-5.344 5.08-7.789 2.445-2.445 4.89-3.964 7.788-5.082C17.967 1.222 21.162.472 25.841.262 30.538.052 32.04 0 43.983 0zm0 7.929c-11.751 0-13.13.034-17.775.262-4.295.192-6.618.925-8.171 1.519-2.06.786-3.527 1.746-5.064 3.283-1.536 1.537-2.48 3.004-3.283 5.065-.61 1.554-1.327 3.877-1.519 8.173-.21 4.645-.261 6.025-.261 17.778 0 11.753.052 13.132.261 17.778.192 4.296.926 6.619 1.52 8.173.785 2.06 1.746 3.528 3.282 5.064 1.537 1.537 3.003 2.48 5.064 3.284 1.553.61 3.876 1.327 8.17 1.519 4.645.21 6.025.262 17.776.262 11.75 0 13.13-.052 17.774-.262 4.295-.192 6.618-.926 8.172-1.52 2.06-.785 3.527-1.746 5.063-3.283 1.537-1.536 2.48-3.003 3.283-5.064.61-1.554 1.327-3.877 1.519-8.173.21-4.646.262-6.025.262-17.778 0-11.753-.053-13.133-.262-17.778-.192-4.296-.926-6.62-1.52-8.173-.785-2.061-1.745-3.528-3.282-5.065-1.536-1.537-3.003-2.48-5.063-3.283-1.554-.611-3.877-1.327-8.172-1.52-4.644-.21-6.024-.261-17.774-.261zM67.5 26a5.5 5.5 0 1 1 0-11 5.5 5.5 0 0 1 0 11zm-24-5C55.915 21 66 31.085 66 43.5S55.915 66 43.5 66 21 55.932 21 43.5 31.085 21 43.5 21zm0 37.106c8.068 0 14.606-6.538 14.606-14.606S51.568 28.894 43.5 28.894 28.894 35.432 28.894 43.5 35.432 58.106 43.5 58.106z" transform="translate(61 109)" fill-rule="nonzero" fill="url(#d)"/><circle cx="100" cy="100" r="100" stroke="#B4C8CF" fill="#FFF" transform="translate(585 53)"/><path d="M737 121.062a42.474 42.474 0 0 1-12.255 3.379 21.502 21.502 0 0 0 9.382-11.872 42.584 42.584 0 0 1-13.55 5.208c-3.892-4.17-9.437-6.777-15.574-6.777-11.784 0-21.337 9.608-21.337 21.458 0 1.682.189 3.32.553 4.89-17.734-.895-33.455-9.438-43.98-22.42a21.45 21.45 0 0 0-2.888 10.788 21.48 21.48 0 0 0 9.492 17.86 21.16 21.16 0 0 1-9.664-2.683c-.002.09-.002.179-.002.27 0 10.396 7.355 19.07 17.116 21.04a21.252 21.252 0 0 1-9.636.368c2.715 8.525 10.595 14.73 19.932 14.902a42.658 42.658 0 0 1-26.5 9.186c-1.721 0-3.42-.101-5.089-.3 9.443 6.089 20.658 9.641 32.708 9.641 39.246 0 60.707-32.698 60.707-61.054 0-.93-.02-1.856-.062-2.776A43.504 43.504 0 0 0 737 121.062" fill-rule="nonzero" fill="#5BB9D7"/></g></svg>